<?xml version="1.0" encoding="UTF-8" standalone="no"?>
<svg
   viewBox="0 0 785.89099 785.89099"
   height="785.89099"
   width="785.89099"
   xml:space="preserve"
   id="svg2"
   version="1.1"
   sodipodi:docname="wayside-chamber-logo.svg"
   inkscape:version="1.1.2 (b8e25be833, 2022-02-05)"
   xmlns:inkscape="http://www.inkscape.org/namespaces/inkscape"
   xmlns:sodipodi="http://sodipodi.sourceforge.net/DTD/sodipodi-0.dtd"
   xmlns="http://www.w3.org/2000/svg"
   xmlns:svg="http://www.w3.org/2000/svg"
   xmlns:rdf="http://www.w3.org/1999/02/22-rdf-syntax-ns#"
   xmlns:cc="http://creativecommons.org/ns#"
   xmlns:dc="http://purl.org/dc/elements/1.1/"><sodipodi:namedview
     id="namedview70"
     pagecolor="#ffffff"
     bordercolor="#666666"
     borderopacity="1.0"
     inkscape:pageshadow="2"
     inkscape:pageopacity="0.0"
     inkscape:pagecheckerboard="0"
     showgrid="false"
     inkscape:zoom="0.67727273"
     inkscape:cx="637.11409"
     inkscape:cy="359.5302"
     inkscape:window-width="1600"
     inkscape:window-height="768"
     inkscape:window-x="0"
     inkscape:window-y="27"
     inkscape:window-maximized="1"
     inkscape:current-layer="layer1" /><metadata
     id="metadata8"><rdf:RDF><cc:Work
         rdf:about=""><dc:format>image/svg+xml</dc:format><dc:type
           rdf:resource="http://purl.org/dc/dcmitype/StillImage" /></cc:Work></rdf:RDF></metadata><defs
     id="defs6"><clipPath
       id="clipPath18"
       clipPathUnits="userSpaceOnUse"><path
         id="path16"
         d="M 0,660 H 660 V 0 H 0 Z" /></clipPath><clipPath
       clipPathUnits="userSpaceOnUse"
       id="clipPath177"><circle
         style="fill:#ff0000;fill-rule:evenodd;stroke-width:0.964215"
         id="circle179"
         cx="326.95401"
         cy="-358.44992"
         r="287.20898"
         transform="scale(1,-1)" /></clipPath><clipPath
       clipPathUnits="userSpaceOnUse"
       id="clipPath388"><rect
         style="fill:#ff0000;stroke-width:0.939966"
         id="rect390"
         width="785.89099"
         height="785.89099"
         x="41.823002"
         y="9.3830004" /></clipPath></defs><g
     inkscape:groupmode="layer"
     id="layer2"
     inkscape:label="Border"><circle
       style="fill:#b3b3b3;stroke-width:0.927629"
       id="path101"
       cx="434.76846"
       cy="400.32803"
       r="392.9455"
       clip-path="url(#clipPath388)"
       transform="matrix(1,0,0,1.002552,-41.823002,-9.4069456)" /></g><g
     transform="matrix(1.333334,0,0,-1.3333333,-42.993393,870.87852)"
     id="g10"
     clip-path="url(#clipPath177)"><g
       id="g12"><g
         clip-path="url(#clipPath18)"
         id="g14"><path
           id="path20"
           style="fill:#b7e7eb;fill-opacity:1;fill-rule:evenodd;stroke:none"
           d="M 0,0 H 660.002 V 660 H 0 Z" /><path
           id="path22"
           style="fill:#4ba5ce;fill-opacity:1;fill-rule:evenodd;stroke:none"
           d="m 0,67.528 h 496.635 v 335.17 H 0 Z" /><path
           id="path24"
           style="fill:#c5ebdd;fill-opacity:1;fill-rule:evenodd;stroke:none"
           d="M 660.002,509.706 V 536.39 L 0,578.32 V 451.984 Z" /><path
           id="path26"
           style="fill:#3d8eba;fill-opacity:1;fill-rule:evenodd;stroke:none"
           d="M 221.458,266.183 207.752,244.779 C 172.033,189.009 124.66,141.636 68.889,105.919 L 0,91.761 v 123.611 z" /><path
           id="path28"
           style="fill:#3d8eba;fill-opacity:1;fill-rule:evenodd;stroke:none"
           d="M 345.617,359.845 C 295.37,288.598 195.992,214.154 110.729,253.563 l 22.147,117.692 z" /><path
           id="path30"
           style="fill:#66c9ef;fill-opacity:1;fill-rule:evenodd;stroke:none"
           d="m 116.536,288.897 h 279.357 v -7.904 H 116.536 Z M 0,237.971 H 370.299 V 192.775 H 0 Z m 31.586,109.457 h 487.92 V 319.112 H 31.586 Z" /><path
           id="path32"
           style="fill:#57b9e2;fill-opacity:1;fill-rule:evenodd;stroke:none"
           d="m 277.523,288.897 c -3.531,-2.719 -7.123,-5.357 -10.764,-7.904 H 116.536 v 3.43 l 0.843,4.474 z m -149.132,58.531 h 207.983 c -7.512,-9.601 -15.851,-19.134 -24.863,-28.317 H 123.064 Z" /><path
           id="path34"
           style="fill:#57b9e2;fill-opacity:1;fill-rule:evenodd;stroke:none"
           d="M 203.303,237.971 C 192.788,222.179 181.329,207.086 168.999,192.774 H 0 v 22.598 l 98.498,22.599 z" /><path
           id="path36"
           style="fill:#e0f3dc;fill-opacity:1;fill-rule:evenodd;stroke:none"
           d="M 660.002,509.706 0,451.984 v -26.687 h 660.002 z" /><path
           id="path38"
           style="fill:#83d28a;fill-opacity:1;fill-rule:evenodd;stroke:none"
           d="m 660.002,442.328 v -46.549 c -9.03,1.055 -16.493,7.245 -19.39,15.571 -2.984,-2.14 -6.639,-3.4 -10.592,-3.4 -7.977,0 -14.756,5.133 -17.216,12.276 -2.996,-1.492 -6.371,-2.332 -9.945,-2.332 -3.33,0 -6.487,0.729 -9.325,2.033 -1.705,-9.788 -10.242,-17.229 -20.518,-17.229 -11.502,0 -20.828,9.326 -20.828,20.829 l 10e-4,0.024 c -1.756,-1.66 -3.878,-2.937 -6.231,-3.699 -0.152,-12.215 -10.099,-22.07 -22.349,-22.07 -11.348,0 -20.72,8.456 -22.16,19.411 -3.005,-3.214 -7.282,-5.223 -12.029,-5.223 -3.364,0 -6.491,1.01 -9.097,2.741 -2.682,-3.245 -6.738,-5.313 -11.277,-5.313 -6.54,0 -12.075,4.294 -13.945,10.216 -2.616,-2.452 -6.132,-3.956 -10,-3.956 -3.106,0 -5.987,0.97 -8.353,2.621 -1.842,-4.173 -6.015,-7.086 -10.868,-7.086 -6.054,0 -11.049,4.53 -11.78,10.385 -2.426,-2.303 -5.704,-3.716 -9.309,-3.716 -2.803,0 -5.404,0.852 -7.562,2.311 -0.815,-6.454 -6.325,-11.446 -13.002,-11.446 -7.238,0 -13.105,5.868 -13.105,13.106 l 10e-4,0.2 c -2.591,-1.966 -5.823,-3.135 -9.327,-3.135 -1.448,0 -2.851,0.201 -4.182,0.574 -2.174,-2.785 -5.56,-4.578 -9.367,-4.578 -4.899,0 -9.103,2.967 -10.919,7.202 -2.181,-4.487 -6.575,-7.554 -11.642,-7.554 -4.446,0 -8.378,2.363 -10.747,5.975 -3.55,-3.681 -8.561,-5.975 -14.113,-5.975 -7.158,0 -13.415,3.814 -16.805,9.499 -1.708,-3.831 -5.548,-6.5 -10.011,-6.5 -3.744,0 -7.049,1.877 -9.023,4.739 -2.446,-2.107 -5.627,-3.381 -9.108,-3.381 -2.762,0 -5.336,0.804 -7.502,2.188 -2.024,-6.66 -8.214,-11.508 -15.535,-11.508 -7.382,0 -13.611,4.926 -15.585,11.669 -1.032,-0.206 -2.097,-0.315 -3.189,-0.315 -5.093,0 -9.634,2.36 -12.595,6.045 -2.441,-6.196 -8.48,-10.58 -15.542,-10.58 -6.123,0 -11.473,3.295 -14.382,8.206 -3.233,-2.63 -7.358,-4.208 -11.85,-4.208 -7.695,0 -14.306,4.625 -17.212,11.246 -2.34,-1.59 -5.165,-2.52 -8.207,-2.52 -8.076,0 -14.53,6.546 -14.621,14.622 -0.261,22.93 17.886,35.615 26.526,8.488 9.719,29.083 25.504,22.402 30.574,-5.173 7.264,12.148 17.069,12.125 22.407,-3.769 5.987,26.857 26.203,23.89 30.368,-1.576 4.983,7.762 9.966,6.81 13.547,-3.299 5.073,24.014 21.243,24.833 25.713,-0.273 2.656,8.628 7.995,7.163 12.728,-1.664 5.897,28.939 34.641,34.821 37.555,4.105 6.481,13.672 15.562,10.277 19.038,-7.625 0.151,11.818 3.169,14.944 8.812,5.609 0.427,27.62 27.923,21.686 30.25,-5.684 4.497,10.879 10.057,9.299 14.173,-0.047 0.405,24.559 24.577,24.343 26.934,-0.645 3.143,16.448 8.14,15.48 12.628,1.63 2.111,23.577 22.256,24.405 28.134,0.864 4.688,11.446 11.258,12.532 16.411,2.478 8.154,20.072 26.377,15.045 29.813,-4.25 3.681,13.966 11.346,18.984 20.636,9.458 5.554,28.411 28.671,21.43 31.36,-5.215 6.588,14.374 15.954,16.084 23.397,5.751 4.293,41.409 41.698,42.318 44.29,0.734 8.179,9.847 16.851,8.777 20.847,-8.408 2.534,13.604 7.235,18.471 14.202,7.095" /><path
           id="path40"
           style="fill:#c6e446;fill-opacity:1;fill-rule:evenodd;stroke:none"
           d="M 0,425.297 H 660.002 V 380.1 H 0 Z" /><path
           id="path42"
           style="fill:#267837;fill-opacity:1;fill-rule:evenodd;stroke:none"
           d="m 623.936,479.75 8.959,-40.64 8.962,-40.64 h -17.921 -17.921 l 8.959,40.64 z m -48.74,-12.25 6.248,-40.944 2.628,-17.206 6.236,25.588 6.545,-26.847 6.542,-26.848 h -13.087 -13.085 l 1.063,4.369 h -3.09 -0.473 l 0.408,-1.765 h -13.519 -4.023 l 2.464,-12.47 h -17.108 -17.106 l 0.457,2.315 h -9.834 -11.201 l 4.656,-15.659 h -14.815 -14.816 l 0.395,1.332 h -10.58 -8.683 l 1.028,-3.643 h -12.399 -12.401 l 6.2,21.991 6.201,21.993 4.539,-16.102 4.688,18.528 10.827,42.768 10.825,-42.768 5.736,-22.658 1.031,3.472 7.409,24.912 7.408,-24.912 0.666,-2.245 5.878,26.928 7.408,33.937 7.407,-33.937 4.794,-21.956 5.729,29 8.553,43.295 8.555,-43.295 1.707,-8.644 1.647,7.141 6.758,29.323 5.877,-25.497 1.458,9.56 z" /><path
           id="path44"
           style="fill:#2f9a3f;fill-opacity:1;fill-rule:evenodd;stroke:none"
           d="m 156.895,486.012 5.211,-25.544 5.212,-25.546 h -10.423 -10.427 l 5.214,25.546 z m 52.484,-31.038 3.659,-19.604 3.659,-19.603 h -5.301 l 1.575,-7.909 h -12.036 -12.039 l 2.495,12.529 h -5.85 -8.115 l 4.057,18.791 4.058,18.791 4.059,-18.791 2.879,-13.322 2.436,12.244 6.02,30.241 5.645,-28.375 z m -90.39,33.973 6.25,-23.868 6.249,-23.87 h -12.499 -12.497 l 6.25,23.87 z m -27.908,17.215 -6.424,-30.325 -6.426,-30.324 h 12.85 12.851 l -6.424,30.324 z m -68.353,-9.258 3.708,-15.819 3.708,-15.819 h -7.416 -7.417 l 3.708,15.819 z m 45.934,10.635 5.213,-22.681 5.212,-22.68 h -10.425 -2.29 l 0.422,-1.967 H 53.235 39.677 l 1.536,7.151 h -2.952 -7.029 l 3.514,23.895 3.515,23.895 3.515,-23.895 1.858,-12.63 2.823,13.137 6.778,31.551 6.779,-31.551 2.428,-11.296 1.008,4.39 z m 158.695,-55.556 4.834,-21.545 4.834,-21.546 h -9.668 -9.668 l 4.832,21.546 z" /><path
           id="path46"
           style="fill:#9ac421;fill-opacity:1;fill-rule:evenodd;stroke:none"
           d="M 660.002,417.893 C 494.421,392.125 353.764,351.539 253.394,301.243 343.01,241.55 485.327,192.182 660.002,159.902 Z" /><path
           id="path48"
           style="fill:#adda1a;fill-opacity:1;fill-rule:evenodd;stroke:none"
           d="M 0,253.563 C 139.176,279.282 257.815,315.849 345.617,359.845 266.671,412.432 146.832,457.009 0,488.947 Z" /><path
           id="path50"
           style="fill:#bee033;fill-opacity:1;fill-rule:evenodd;stroke:none"
           d="M 273.944,400.143 C 200.789,435.322 107.651,465.532 0,488.947 v -60.381 c 38.922,-13.387 86.924,-23.81 138.869,-29.027 50.269,-5.05 96.848,-4.483 135.075,0.604" /><path
           id="path52"
           style="fill:#90ba24;fill-opacity:1;fill-rule:evenodd;stroke:none"
           d="m 0,187.088 c 86.156,22.115 161.098,48.848 221.458,79.095 C 166.132,303.035 90.708,335.954 0,363.344 Z" /><path
           id="path54"
           style="fill:#205b2b;fill-opacity:1;fill-rule:evenodd;stroke:none"
           d="m 494.458,252.127 h 165.544 v 63.246 l -14.777,66.482 -16.432,-73.945 -9.005,-40.508 -2.674,10.86 -12.575,51.069 -12.575,-51.069 -1.991,-8.087 -12.541,59.564 -16.633,78.988 -16.631,-78.988 -6.685,-31.743 -15.719,62.242 -16.012,-63.392 z" /><path
           id="path56"
           style="fill:#9cc920;fill-opacity:1;fill-rule:evenodd;stroke:none"
           d="M 155.427,303.734 C 110.869,325.626 58.629,345.639 0,363.344 v -51.59 c 19.79,-12.062 46.312,-20.425 75.467,-22.41 31.422,-2.142 59.788,3.538 79.96,14.39" /><path
           id="path58"
           style="fill:#87b027;fill-opacity:1;fill-rule:evenodd;stroke:none"
           d="M 660.002,295.729 C 368.339,272.267 127.041,205.77 0,117.522 V 0 h 660.002 z" /><path
           id="path60"
           style="fill:#769a2a;fill-opacity:1;fill-rule:evenodd;stroke:none"
           d="M 660.002,128.63 C 368.339,118.425 127.041,89.502 0,51.117 V 0 h 660.002 z" /><path
           id="path62"
           style="fill:#f7af59;fill-opacity:1;fill-rule:evenodd;stroke:none"
           d="m 660.002,81.491 -34.829,2.248 -48.729,-14.278 h -53.01 L 486.136,39.859 481.167,11.473 470.469,0 h 189.533 z" /><path
           id="path64"
           style="fill:#e2892f;fill-opacity:1;fill-rule:evenodd;stroke:none"
           d="m 660.002,52.396 -21.108,8.28 -39.923,-20.817 -5.495,-26.257 -27.441,4.257 -35.01,27.441 -39.976,-9.936 26.257,-6.03 L 511.63,10.29 491.758,0 h 168.244 z" /><path
           id="path66"
           style="fill:#fbc37f;fill-opacity:1;fill-rule:evenodd;stroke:none"
           d="m 486.136,39.859 41.814,16.016 40.923,-14.005 50.624,18.806 -10.646,5.678 19.098,9.657 32.053,-11.78 v 17.26 l -34.829,2.248 -50.149,-14.278 h -51.59 z" /><path
           id="path68"
           style="fill:#f7af59;fill-opacity:1;fill-rule:evenodd;stroke:none"
           d="m 174.731,0 30.706,14.578 50.664,5.038 49.754,19.889 L 351.076,26.044 365.534,1.578 368.868,0 Z" /><path
           id="path70"
           style="fill:#e2892f;fill-opacity:1;fill-rule:evenodd;stroke:none"
           d="m 298.429,0 8.636,14.247 40.951,5.784 L 325.451,4.586 328.965,0 Z" /><path
           id="path72"
           style="fill:#fbc37f;fill-opacity:1;fill-rule:evenodd;stroke:none"
           d="M 351.076,26.044 306.303,25.21 276.438,0 h -53.65 L 226.755,4.575 205.499,6.367 198.279,0 h -23.548 l 30.706,14.578 51.995,5.571 48.423,19.356 z" /><path
           id="path74"
           style="fill:#5b7728;fill-opacity:1;fill-rule:evenodd;stroke:none"
           d="m 460.549,319.111 32.924,-133.934 -26.161,-37.346 -2.395,-44.186 h -8.735 l -2.395,44.187 -26.157,37.345 z" /><path
           id="path76"
           style="fill:#598e2f;fill-opacity:1;fill-rule:evenodd;stroke:none"
           d="m 331.425,363.587 8.75,-35.593 -6.952,-9.925 -0.638,-11.744 h -2.321 l -0.636,11.744 -6.953,9.925 z" /><path
           id="path78"
           style="fill:#598e2f;fill-opacity:1;fill-rule:evenodd;stroke:none"
           d="m 388.91,380.1 13.433,-54.648 -10.673,-15.237 -0.979,-18.027 h -3.562 l -0.979,18.027 -10.673,15.237 z" /><path
           id="path80"
           style="fill:#205b2b;fill-opacity:1;fill-rule:evenodd;stroke:none"
           d="M 99.533,353.414 144.6,170.07 108.789,118.947 105.51,58.46 H 93.555 l -3.279,60.491 -35.808,51.119 z" /><path
           id="path82"
           style="fill:#71b52d;fill-opacity:1;fill-rule:evenodd;stroke:none"
           d="m 289.495,433.845 8.748,-35.594 -6.952,-9.924 -0.636,-11.743 h -2.322 l -0.635,11.743 -6.952,9.924 z" /><path
           id="path84"
           style="fill:#71b52d;fill-opacity:1;fill-rule:evenodd;stroke:none"
           d="m 171.729,462.389 13.645,-55.514 -10.841,-15.479 -0.994,-18.314 h -3.621 l -0.994,18.315 -10.841,15.478 z" /><path
           id="path86"
           style="fill:#ffffff;fill-opacity:1;fill-rule:evenodd;stroke:none"
           d="M 559.787,578.32 H 340.175 l 31.741,4.783 c 12.309,54.544 51.3,48.921 55.714,3.812 10.016,13.3 27.126,25.67 41.762,-1.634 18.836,48.222 35.634,50.166 50.115,-0.545 z" /><path
           id="path88"
           style="fill:#ffffff;fill-opacity:1;fill-rule:evenodd;stroke:none"
           d="M 199.502,528.476 H 89.698 l 15.868,2.391 c 6.155,27.272 25.651,24.461 27.859,1.905 5.006,6.651 13.563,12.835 20.879,-0.816 9.419,24.111 17.818,25.082 25.057,-0.272 z" /><path
           id="path90"
           style="fill:#ffffff;fill-opacity:1;fill-rule:nonzero;stroke:none"
           d="m 232.523,20.341 c 0,0.655 -0.093,1.22 -0.289,1.684 -0.187,0.471 -0.453,0.831 -0.795,1.087 -0.339,0.249 -0.712,0.376 -1.127,0.376 -0.655,0 -1.207,-0.275 -1.658,-0.809 -0.451,-0.544 -0.675,-1.333 -0.675,-2.382 0,-0.987 0.224,-1.754 0.669,-2.297 0.449,-0.549 1.004,-0.827 1.664,-0.827 0.395,0 0.761,0.12 1.099,0.363 0.333,0.238 0.605,0.596 0.808,1.071 0.205,0.482 0.304,1.058 0.304,1.734 m -4.655,3.61 v -0.298 c 0.446,0.574 0.909,1 1.39,1.266 0.482,0.27 1.031,0.407 1.64,0.407 0.729,0 1.403,-0.199 2.018,-0.593 0.613,-0.392 1.099,-0.964 1.457,-1.723 0.356,-0.759 0.533,-1.653 0.533,-2.689 0,-0.761 -0.099,-1.468 -0.306,-2.099 -0.205,-0.641 -0.489,-1.179 -0.849,-1.612 -0.36,-0.432 -0.786,-0.767 -1.274,-0.997 -0.493,-0.236 -1.02,-0.351 -1.579,-0.351 -0.682,0 -1.252,0.14 -1.713,0.426 -0.464,0.284 -0.901,0.699 -1.317,1.251 v -3.718 c 0,-1.093 -0.381,-1.635 -1.139,-1.635 -0.448,0 -0.745,0.138 -0.886,0.419 -0.146,0.282 -0.218,0.692 -0.218,1.231 v 10.7 c 0,0.471 0.096,0.826 0.295,1.057 0.199,0.232 0.468,0.352 0.809,0.352 0.335,0 0.611,-0.12 0.822,-0.362 0.211,-0.242 0.317,-0.586 0.317,-1.032" /><path
           id="path92"
           style="fill:#ffffff;fill-opacity:1;fill-rule:nonzero;stroke:none"
           d="m 242.986,16.663 v 0.314 c -0.287,-0.375 -0.584,-0.688 -0.899,-0.94 -0.314,-0.26 -0.655,-0.447 -1.024,-0.57 -0.374,-0.122 -0.797,-0.185 -1.272,-0.185 -0.573,0 -1.088,0.125 -1.543,0.37 -0.457,0.248 -0.809,0.591 -1.057,1.026 -0.298,0.528 -0.445,1.285 -0.445,2.267 v 4.914 c 0,0.493 0.108,0.866 0.323,1.109 0.214,0.245 0.497,0.37 0.851,0.37 0.361,0 0.65,-0.125 0.871,-0.375 0.22,-0.248 0.33,-0.618 0.33,-1.104 v -3.97 c 0,-0.573 0.047,-1.055 0.135,-1.443 0.098,-0.393 0.263,-0.699 0.508,-0.922 0.236,-0.219 0.562,-0.328 0.973,-0.328 0.405,0 0.783,0.125 1.132,0.372 0.358,0.246 0.615,0.57 0.777,0.968 0.135,0.354 0.2,1.12 0.2,2.308 v 3.015 c 0,0.486 0.109,0.856 0.331,1.104 0.219,0.25 0.505,0.375 0.858,0.375 0.356,0 0.639,-0.125 0.853,-0.37 0.214,-0.243 0.319,-0.616 0.319,-1.109 v -7.181 c 0,-0.472 -0.1,-0.827 -0.308,-1.061 -0.202,-0.238 -0.467,-0.353 -0.794,-0.353 -0.323,0 -0.59,0.125 -0.802,0.365 -0.211,0.248 -0.317,0.588 -0.317,1.034" /><path
           id="path94"
           style="fill:#ffffff;fill-opacity:1;fill-rule:nonzero;stroke:none"
           d="m 249.875,20.242 c 0,-0.986 0.215,-1.741 0.645,-2.273 0.433,-0.528 1,-0.796 1.703,-0.796 0.599,0 1.111,0.273 1.547,0.814 0.433,0.542 0.647,1.315 0.647,2.326 0,0.661 -0.09,1.222 -0.269,1.692 -0.181,0.474 -0.439,0.839 -0.765,1.095 -0.336,0.256 -0.718,0.388 -1.16,0.388 -0.455,0 -0.854,-0.132 -1.209,-0.388 -0.356,-0.256 -0.632,-0.63 -0.836,-1.118 -0.203,-0.483 -0.303,-1.062 -0.303,-1.74 m -0.113,7.368 v -3.788 c 0.441,0.489 0.899,0.856 1.363,1.118 0.464,0.256 1.04,0.386 1.725,0.386 0.787,0 1.477,-0.199 2.074,-0.585 0.593,-0.396 1.056,-0.959 1.383,-1.699 0.33,-0.742 0.492,-1.62 0.492,-2.638 0,-0.753 -0.091,-1.44 -0.272,-2.069 -0.184,-0.625 -0.448,-1.166 -0.796,-1.63 -0.35,-0.458 -0.772,-0.809 -1.267,-1.069 -0.497,-0.247 -1.044,-0.374 -1.64,-0.374 -0.365,0 -0.709,0.046 -1.033,0.136 -0.323,0.09 -0.598,0.208 -0.82,0.361 -0.229,0.141 -0.421,0.299 -0.58,0.453 -0.161,0.16 -0.369,0.393 -0.629,0.709 v -0.243 c 0,-0.468 -0.11,-0.82 -0.325,-1.061 -0.213,-0.238 -0.488,-0.355 -0.816,-0.355 -0.338,0 -0.603,0.117 -0.807,0.355 -0.199,0.246 -0.298,0.595 -0.298,1.061 v 10.824 c 0,0.499 0.097,0.879 0.293,1.136 0.193,0.259 0.462,0.386 0.812,0.386 0.362,0 0.647,-0.123 0.842,-0.37 0.199,-0.243 0.299,-0.59 0.299,-1.044" /><path
           id="path96"
           style="fill:#ffffff;fill-opacity:1;fill-rule:nonzero;stroke:none"
           d="m 258.475,16.771 v 10.747 c 0,0.498 0.105,0.871 0.316,1.127 0.213,0.252 0.498,0.379 0.857,0.379 0.36,0 0.649,-0.125 0.872,-0.377 0.216,-0.25 0.329,-0.629 0.329,-1.129 V 16.771 c 0,-0.503 -0.115,-0.882 -0.335,-1.135 -0.223,-0.247 -0.512,-0.374 -0.866,-0.374 -0.347,0 -0.627,0.13 -0.846,0.39 -0.219,0.262 -0.327,0.632 -0.327,1.119" /><path
           id="path98"
           style="fill:#ffffff;fill-opacity:1;fill-rule:nonzero;stroke:none"
           d="m 265.676,23.929 v -7.158 c 0,-0.5 -0.115,-0.875 -0.337,-1.129 -0.228,-0.25 -0.517,-0.38 -0.862,-0.38 -0.349,0 -0.631,0.13 -0.848,0.388 -0.217,0.264 -0.327,0.634 -0.327,1.121 v 7.088 c 0,0.486 0.11,0.856 0.327,1.104 0.217,0.25 0.499,0.375 0.848,0.375 0.345,0 0.634,-0.125 0.862,-0.375 0.222,-0.248 0.337,-0.592 0.337,-1.034 m -1.176,2.563 c -0.328,0 -0.61,0.105 -0.85,0.322 -0.228,0.21 -0.348,0.514 -0.348,0.901 0,0.349 0.12,0.636 0.361,0.867 0.238,0.228 0.519,0.335 0.837,0.335 0.309,0 0.582,-0.101 0.82,-0.305 0.236,-0.205 0.356,-0.508 0.356,-0.897 0,-0.384 -0.117,-0.681 -0.348,-0.894 -0.232,-0.216 -0.507,-0.329 -0.828,-0.329" /><path
           id="path100"
           style="fill:#ffffff;fill-opacity:1;fill-rule:nonzero;stroke:none"
           d="m 276.636,18.33 c 0,-0.308 -0.087,-0.639 -0.263,-0.988 -0.181,-0.352 -0.449,-0.685 -0.812,-1.002 -0.362,-0.318 -0.819,-0.574 -1.369,-0.766 -0.549,-0.197 -1.172,-0.292 -1.86,-0.292 -1.469,0 -2.613,0.447 -3.437,1.338 -0.824,0.894 -1.235,2.087 -1.235,3.589 0,1.016 0.188,1.918 0.563,2.696 0.377,0.778 0.925,1.385 1.636,1.81 0.711,0.429 1.566,0.641 2.555,0.641 0.617,0 1.183,-0.095 1.695,-0.28 0.514,-0.189 0.949,-0.432 1.303,-0.726 0.358,-0.297 0.629,-0.614 0.82,-0.95 0.192,-0.335 0.282,-0.648 0.282,-0.939 0,-0.293 -0.108,-0.543 -0.317,-0.752 -0.213,-0.206 -0.467,-0.31 -0.769,-0.31 -0.199,0 -0.363,0.058 -0.494,0.164 -0.127,0.102 -0.277,0.269 -0.438,0.509 -0.291,0.458 -0.594,0.806 -0.91,1.04 -0.316,0.229 -0.719,0.347 -1.201,0.347 -0.705,0 -1.272,-0.29 -1.7,-0.861 -0.429,-0.577 -0.642,-1.357 -0.642,-2.35 0,-0.465 0.056,-0.897 0.165,-1.286 0.11,-0.392 0.271,-0.722 0.477,-0.999 0.21,-0.276 0.46,-0.484 0.758,-0.625 0.295,-0.145 0.62,-0.216 0.971,-0.216 0.48,0 0.885,0.113 1.224,0.345 0.341,0.232 0.641,0.583 0.899,1.051 0.149,0.284 0.304,0.5 0.473,0.66 0.169,0.157 0.375,0.231 0.617,0.231 0.29,0 0.531,-0.111 0.724,-0.341 0.187,-0.234 0.285,-0.477 0.285,-0.738" /><path
           id="path102"
           style="fill:#ffffff;fill-opacity:1;fill-rule:nonzero;stroke:none"
           d="m 280.548,20.313 c 0,-0.67 0.099,-1.24 0.3,-1.714 0.2,-0.473 0.47,-0.825 0.817,-1.063 0.352,-0.243 0.731,-0.363 1.139,-0.363 0.42,0 0.8,0.116 1.144,0.341 0.346,0.228 0.619,0.577 0.828,1.046 0.205,0.467 0.307,1.054 0.307,1.753 0,0.665 -0.102,1.229 -0.307,1.706 -0.209,0.477 -0.484,0.837 -0.836,1.093 -0.35,0.249 -0.734,0.376 -1.15,0.376 -0.434,0 -0.821,-0.132 -1.166,-0.388 -0.339,-0.256 -0.606,-0.627 -0.794,-1.109 -0.187,-0.483 -0.282,-1.036 -0.282,-1.678 m 4.666,-3.635 v 0.243 c -0.318,-0.382 -0.633,-0.691 -0.945,-0.928 -0.307,-0.241 -0.645,-0.422 -1.007,-0.547 -0.361,-0.12 -0.759,-0.184 -1.187,-0.184 -0.566,0 -1.096,0.127 -1.578,0.374 -0.482,0.26 -0.902,0.613 -1.255,1.079 -0.353,0.465 -0.621,1.014 -0.806,1.645 -0.184,0.627 -0.274,1.308 -0.274,2.044 0,1.546 0.363,2.759 1.087,3.624 0.727,0.866 1.68,1.298 2.861,1.298 0.685,0 1.263,-0.125 1.731,-0.375 0.469,-0.24 0.928,-0.618 1.373,-1.129 v 3.659 c 0,0.509 0.098,0.893 0.293,1.153 0.193,0.261 0.468,0.39 0.828,0.39 0.359,0 0.635,-0.12 0.832,-0.356 0.194,-0.238 0.294,-0.593 0.294,-1.058 V 16.678 c 0,-0.472 -0.107,-0.827 -0.315,-1.061 -0.209,-0.238 -0.479,-0.355 -0.811,-0.355 -0.32,0 -0.592,0.122 -0.805,0.367 -0.211,0.243 -0.316,0.591 -0.316,1.049" /><path
           id="path104"
           style="fill:#ffffff;fill-opacity:1;fill-rule:nonzero;stroke:none"
           d="m 296.35,20.295 c 0,1.007 -0.215,1.796 -0.642,2.358 -0.426,0.56 -1,0.845 -1.717,0.845 -0.467,0 -0.873,-0.128 -1.228,-0.378 -0.352,-0.254 -0.625,-0.624 -0.816,-1.115 -0.192,-0.485 -0.288,-1.055 -0.288,-1.71 0,-0.649 0.096,-1.213 0.283,-1.696 0.189,-0.484 0.458,-0.855 0.811,-1.114 0.348,-0.255 0.766,-0.381 1.238,-0.381 0.717,0 1.291,0.28 1.717,0.846 0.427,0.563 0.642,1.348 0.642,2.345 m 2.381,0 c 0,-0.735 -0.11,-1.416 -0.33,-2.044 -0.22,-0.617 -0.538,-1.155 -0.955,-1.604 -0.419,-0.449 -0.918,-0.784 -1.498,-1.03 -0.58,-0.238 -1.236,-0.355 -1.957,-0.355 -0.719,0 -1.364,0.117 -1.939,0.363 -0.574,0.24 -1.072,0.587 -1.493,1.038 -0.419,0.452 -0.738,0.982 -0.958,1.595 -0.217,0.619 -0.324,1.294 -0.324,2.041 0,0.75 0.111,1.435 0.329,2.057 0.222,0.625 0.537,1.156 0.948,1.601 0.413,0.44 0.91,0.781 1.498,1.02 0.588,0.238 1.231,0.361 1.939,0.361 0.72,0 1.373,-0.123 1.957,-0.365 0.584,-0.242 1.086,-0.589 1.504,-1.037 0.418,-0.448 0.736,-0.982 0.95,-1.6 0.223,-0.615 0.329,-1.298 0.329,-2.041" /><path
           id="path106"
           style="fill:#ffffff;fill-opacity:1;fill-rule:nonzero;stroke:none"
           d="m 308.761,22.341 c -0.178,-0.419 -0.264,-1.157 -0.264,-2.222 v -3.293 c 0,-0.518 -0.111,-0.912 -0.34,-1.174 -0.224,-0.26 -0.525,-0.39 -0.896,-0.39 -0.358,0 -0.648,0.13 -0.869,0.39 -0.224,0.262 -0.334,0.656 -0.334,1.174 v 3.952 c 0,0.621 -0.024,1.105 -0.065,1.454 -0.041,0.342 -0.15,0.627 -0.329,0.849 -0.177,0.222 -0.464,0.333 -0.851,0.333 -0.775,0 -1.285,-0.279 -1.535,-0.84 -0.247,-0.555 -0.367,-1.355 -0.367,-2.397 v -3.351 c 0,-0.516 -0.113,-0.908 -0.334,-1.166 -0.224,-0.268 -0.519,-0.398 -0.881,-0.398 -0.361,0 -0.659,0.13 -0.885,0.398 -0.231,0.258 -0.341,0.65 -0.341,1.163 v 7.094 c 0,0.467 0.098,0.821 0.302,1.062 0.209,0.241 0.479,0.366 0.817,0.366 0.324,0 0.596,-0.114 0.812,-0.34 0.218,-0.228 0.327,-0.54 0.327,-0.941 v -0.235 c 0.41,0.516 0.852,0.894 1.32,1.134 0.469,0.241 0.996,0.363 1.566,0.363 0.597,0 1.106,-0.125 1.536,-0.375 0.431,-0.245 0.783,-0.622 1.06,-1.122 0.4,0.504 0.83,0.886 1.289,1.129 0.459,0.246 0.965,0.368 1.521,0.368 0.654,0 1.21,-0.13 1.679,-0.4 0.471,-0.267 0.821,-0.646 1.053,-1.144 0.205,-0.448 0.305,-1.152 0.305,-2.117 v -4.839 c 0,-0.518 -0.114,-0.912 -0.336,-1.174 -0.231,-0.26 -0.528,-0.39 -0.899,-0.39 -0.359,0 -0.654,0.13 -0.881,0.398 -0.232,0.258 -0.347,0.65 -0.347,1.166 v 4.17 c 0,0.532 -0.022,0.958 -0.065,1.279 -0.043,0.326 -0.16,0.591 -0.353,0.809 -0.19,0.219 -0.484,0.33 -0.868,0.33 -0.313,0 -0.612,-0.099 -0.889,-0.288 -0.287,-0.197 -0.5,-0.457 -0.658,-0.785" /><path
           id="path108"
           style="fill:#ffffff;fill-opacity:1;fill-rule:nonzero;stroke:none"
           d="m 322.209,20.248 c -0.35,-0.136 -0.855,-0.274 -1.52,-0.425 -0.664,-0.148 -1.125,-0.255 -1.38,-0.327 -0.256,-0.071 -0.498,-0.205 -0.729,-0.407 -0.234,-0.208 -0.35,-0.49 -0.35,-0.854 0,-0.378 0.137,-0.696 0.409,-0.958 0.273,-0.266 0.631,-0.396 1.072,-0.396 0.469,0 0.904,0.109 1.301,0.325 0.396,0.212 0.689,0.493 0.873,0.83 0.215,0.375 0.324,0.991 0.324,1.859 z m 0.154,-3.591 c -0.576,-0.466 -1.131,-0.814 -1.666,-1.044 -0.535,-0.236 -1.138,-0.351 -1.802,-0.351 -0.614,0 -1.145,0.127 -1.608,0.374 -0.463,0.253 -0.816,0.594 -1.066,1.027 -0.248,0.429 -0.375,0.892 -0.375,1.396 0,0.678 0.211,1.254 0.621,1.734 0.408,0.474 0.974,0.796 1.691,0.961 0.153,0.036 0.528,0.115 1.123,0.242 0.602,0.13 1.11,0.245 1.541,0.35 0.424,0.104 0.889,0.233 1.387,0.383 -0.031,0.658 -0.156,1.137 -0.379,1.448 -0.225,0.302 -0.689,0.453 -1.389,0.453 -0.605,0 -1.056,-0.085 -1.365,-0.262 -0.303,-0.173 -0.564,-0.439 -0.779,-0.794 -0.221,-0.349 -0.371,-0.581 -0.461,-0.693 -0.092,-0.113 -0.285,-0.164 -0.578,-0.164 -0.27,0 -0.498,0.087 -0.69,0.263 -0.197,0.18 -0.295,0.407 -0.295,0.689 0,0.435 0.149,0.861 0.444,1.267 0.297,0.414 0.758,0.752 1.383,1.022 0.627,0.267 1.408,0.398 2.341,0.398 1.043,0 1.864,-0.131 2.465,-0.388 0.596,-0.253 1.014,-0.657 1.262,-1.22 0.248,-0.553 0.371,-1.294 0.371,-2.213 0,-0.58 0,-1.078 -0.004,-1.48 -0.006,-0.409 -0.008,-0.86 -0.014,-1.355 0,-0.465 0.075,-0.953 0.223,-1.455 0.145,-0.505 0.219,-0.832 0.219,-0.974 0,-0.255 -0.117,-0.489 -0.344,-0.697 -0.224,-0.207 -0.486,-0.312 -0.775,-0.312 -0.246,0 -0.483,0.117 -0.725,0.355 -0.236,0.241 -0.488,0.589 -0.756,1.04" /><path
           id="path110"
           style="fill:#ffffff;fill-opacity:1;fill-rule:nonzero;stroke:none"
           d="m 329.326,23.929 v -7.158 c 0,-0.5 -0.115,-0.875 -0.338,-1.129 -0.226,-0.25 -0.511,-0.38 -0.859,-0.38 -0.348,0 -0.635,0.13 -0.85,0.388 -0.218,0.264 -0.328,0.634 -0.328,1.121 v 7.088 c 0,0.486 0.11,0.856 0.328,1.104 0.215,0.25 0.502,0.375 0.85,0.375 0.348,0 0.633,-0.125 0.859,-0.375 0.223,-0.248 0.338,-0.592 0.338,-1.034 m -1.174,2.563 c -0.328,0 -0.609,0.105 -0.845,0.322 -0.235,0.21 -0.356,0.514 -0.356,0.901 0,0.349 0.123,0.636 0.365,0.867 0.239,0.228 0.52,0.335 0.836,0.335 0.307,0 0.582,-0.101 0.821,-0.305 0.234,-0.205 0.353,-0.508 0.353,-0.897 0,-0.384 -0.115,-0.681 -0.347,-0.894 -0.233,-0.216 -0.508,-0.329 -0.827,-0.329" /><path
           id="path112"
           style="fill:#ffffff;fill-opacity:1;fill-rule:nonzero;stroke:none"
           d="m 333.939,23.965 v -0.296 c 0.415,0.572 0.872,0.995 1.364,1.264 0.498,0.268 1.066,0.405 1.715,0.405 0.623,0 1.183,-0.142 1.679,-0.431 0.489,-0.282 0.86,-0.68 1.102,-1.201 0.156,-0.306 0.256,-0.635 0.305,-0.983 0.042,-0.35 0.07,-0.797 0.07,-1.343 v -4.609 c 0,-0.5 -0.113,-0.875 -0.328,-1.129 -0.217,-0.25 -0.502,-0.38 -0.848,-0.38 -0.352,0 -0.641,0.13 -0.853,0.39 -0.223,0.262 -0.336,0.632 -0.336,1.119 v 4.125 c 0,0.822 -0.106,1.445 -0.323,1.877 -0.222,0.433 -0.656,0.651 -1.306,0.651 -0.422,0 -0.807,-0.132 -1.155,-0.398 -0.347,-0.259 -0.603,-0.623 -0.763,-1.084 -0.117,-0.368 -0.178,-1.056 -0.178,-2.073 v -3.098 c 0,-0.503 -0.109,-0.882 -0.334,-1.135 -0.225,-0.247 -0.512,-0.374 -0.865,-0.374 -0.34,0 -0.623,0.13 -0.842,0.388 -0.225,0.264 -0.332,0.634 -0.332,1.121 v 7.158 c 0,0.473 0.098,0.823 0.297,1.057 0.193,0.234 0.469,0.352 0.808,0.352 0.207,0 0.399,-0.056 0.563,-0.156 0.174,-0.101 0.305,-0.26 0.406,-0.459 0.098,-0.211 0.154,-0.461 0.154,-0.758" /><path
           id="path114"
           style="fill:#ffffff;fill-opacity:1;fill-rule:nonzero;stroke:none"
           d="m 343.984,23.794 1.918,-5.626 2.071,5.872 c 0.166,0.472 0.324,0.803 0.482,1.002 0.16,0.194 0.393,0.296 0.711,0.296 0.303,0 0.559,-0.107 0.775,-0.322 0.207,-0.21 0.315,-0.452 0.315,-0.736 0,-0.108 -0.022,-0.233 -0.059,-0.374 -0.035,-0.149 -0.078,-0.286 -0.129,-0.415 -0.05,-0.123 -0.101,-0.271 -0.17,-0.432 l -2.279,-5.9 c -0.064,-0.169 -0.148,-0.387 -0.248,-0.647 -0.103,-0.258 -0.217,-0.478 -0.34,-0.669 -0.127,-0.182 -0.279,-0.322 -0.459,-0.426 -0.185,-0.103 -0.408,-0.155 -0.67,-0.155 -0.336,0 -0.603,0.079 -0.804,0.238 -0.202,0.161 -0.35,0.335 -0.444,0.529 -0.093,0.188 -0.258,0.566 -0.482,1.13 l -2.264,5.835 c -0.053,0.145 -0.107,0.291 -0.164,0.435 -0.053,0.145 -0.096,0.291 -0.137,0.444 -0.035,0.155 -0.056,0.284 -0.056,0.389 0,0.173 0.049,0.34 0.15,0.507 0.098,0.167 0.237,0.305 0.408,0.409 0.176,0.104 0.362,0.16 0.567,0.16 0.392,0 0.664,-0.118 0.812,-0.359 0.149,-0.234 0.315,-0.629 0.496,-1.185" /><path
           id="path116"
           style="fill:#ffffff;fill-opacity:1;fill-rule:nonzero;stroke:none"
           d="m 353.697,21.103 h 4.305 c -0.057,0.844 -0.273,1.479 -0.656,1.897 -0.381,0.419 -0.881,0.63 -1.502,0.63 -0.588,0 -1.076,-0.213 -1.453,-0.639 -0.381,-0.424 -0.608,-1.055 -0.694,-1.888 m 4.647,-1.41 h -4.647 c 0.002,-0.566 0.116,-1.059 0.323,-1.493 0.216,-0.426 0.496,-0.749 0.845,-0.97 0.352,-0.219 0.74,-0.325 1.164,-0.325 0.284,0 0.545,0.034 0.778,0.101 0.234,0.074 0.463,0.182 0.685,0.329 0.217,0.148 0.418,0.304 0.606,0.479 0.183,0.167 0.431,0.395 0.72,0.687 0.125,0.114 0.299,0.165 0.524,0.165 0.246,0 0.441,-0.067 0.592,-0.209 0.152,-0.141 0.224,-0.335 0.224,-0.588 0,-0.224 -0.082,-0.487 -0.252,-0.789 -0.168,-0.296 -0.416,-0.585 -0.761,-0.863 -0.34,-0.274 -0.766,-0.499 -1.28,-0.685 -0.51,-0.18 -1.097,-0.27 -1.769,-0.27 -1.524,0 -2.711,0.456 -3.555,1.36 -0.844,0.912 -1.268,2.141 -1.268,3.691 0,0.742 0.108,1.416 0.313,2.041 0.209,0.627 0.512,1.165 0.912,1.611 0.4,0.451 0.891,0.797 1.479,1.032 0.587,0.239 1.234,0.359 1.951,0.359 0.922,0 1.718,-0.204 2.383,-0.615 0.666,-0.408 1.162,-0.932 1.492,-1.578 0.332,-0.651 0.496,-1.309 0.496,-1.984 0,-0.62 -0.166,-1.025 -0.512,-1.207 -0.346,-0.189 -0.822,-0.279 -1.443,-0.279" /><path
           id="path118"
           style="fill:#ffffff;fill-opacity:1;fill-rule:nonzero;stroke:none"
           d="m 370.818,18.33 c 0,-0.308 -0.088,-0.639 -0.267,-0.988 -0.178,-0.352 -0.444,-0.685 -0.809,-1.002 -0.361,-0.318 -0.82,-0.574 -1.373,-0.766 -0.549,-0.197 -1.172,-0.292 -1.857,-0.292 -1.471,0 -2.616,0.447 -3.438,1.338 -0.82,0.894 -1.236,2.087 -1.236,3.589 0,1.016 0.187,1.918 0.568,2.696 0.377,0.778 0.918,1.385 1.633,1.81 0.711,0.429 1.566,0.641 2.559,0.641 0.615,0 1.175,-0.095 1.693,-0.28 0.512,-0.189 0.943,-0.432 1.305,-0.726 0.357,-0.297 0.627,-0.614 0.818,-0.95 0.186,-0.335 0.281,-0.648 0.281,-0.939 0,-0.293 -0.103,-0.543 -0.322,-0.752 -0.209,-0.206 -0.465,-0.31 -0.766,-0.31 -0.199,0 -0.361,0.058 -0.488,0.164 -0.135,0.102 -0.279,0.269 -0.445,0.509 -0.289,0.458 -0.59,0.806 -0.906,1.04 -0.317,0.229 -0.719,0.347 -1.207,0.347 -0.698,0 -1.266,-0.29 -1.694,-0.861 -0.431,-0.577 -0.644,-1.357 -0.644,-2.35 0,-0.465 0.058,-0.897 0.164,-1.286 0.111,-0.392 0.271,-0.722 0.48,-0.999 0.209,-0.276 0.463,-0.484 0.758,-0.625 0.291,-0.145 0.617,-0.216 0.973,-0.216 0.474,0 0.884,0.113 1.222,0.345 0.338,0.232 0.641,0.583 0.903,1.051 0.144,0.284 0.298,0.5 0.468,0.66 0.166,0.157 0.372,0.231 0.618,0.231 0.287,0 0.531,-0.111 0.716,-0.341 0.196,-0.234 0.293,-0.477 0.293,-0.738" /><path
           id="path120"
           style="fill:#ffffff;fill-opacity:1;fill-rule:nonzero;stroke:none"
           d="m 373.023,25.127 h 0.262 v 1.491 c 0,0.396 0.01,0.713 0.031,0.939 0.02,0.227 0.073,0.419 0.17,0.584 0.09,0.167 0.225,0.307 0.401,0.414 0.172,0.104 0.365,0.154 0.58,0.154 0.301,0 0.574,-0.117 0.816,-0.351 0.16,-0.16 0.266,-0.349 0.309,-0.574 0.045,-0.227 0.064,-0.554 0.064,-0.97 v -1.687 h 0.873 c 0.336,0 0.594,-0.083 0.77,-0.25 0.18,-0.166 0.265,-0.377 0.265,-0.638 0,-0.333 -0.125,-0.57 -0.38,-0.7 -0.25,-0.131 -0.612,-0.198 -1.082,-0.198 h -0.446 v -4.565 c 0,-0.388 0.014,-0.686 0.039,-0.897 0.03,-0.211 0.104,-0.38 0.215,-0.507 0.11,-0.132 0.293,-0.199 0.551,-0.199 0.139,0 0.326,0.025 0.566,0.079 0.233,0.051 0.418,0.076 0.555,0.076 0.189,0 0.367,-0.083 0.518,-0.236 0.15,-0.164 0.23,-0.359 0.23,-0.597 0,-0.398 -0.205,-0.703 -0.625,-0.917 -0.422,-0.211 -1.019,-0.316 -1.801,-0.316 -0.742,0 -1.306,0.13 -1.689,0.39 -0.381,0.262 -0.635,0.619 -0.75,1.084 -0.121,0.46 -0.18,1.073 -0.18,1.842 v 4.763 h -0.316 c -0.336,0 -0.598,0.083 -0.78,0.255 -0.181,0.168 -0.269,0.382 -0.269,0.643 0,0.261 0.094,0.472 0.279,0.638 0.192,0.167 0.465,0.25 0.824,0.25" /><path
           id="path122"
           style="fill:#ffffff;fill-opacity:1;fill-rule:nonzero;stroke:none"
           d="m 385.701,20.295 c 0,1.007 -0.215,1.796 -0.638,2.358 -0.43,0.56 -0.999,0.845 -1.719,0.845 -0.465,0 -0.873,-0.128 -1.227,-0.378 -0.355,-0.254 -0.627,-0.624 -0.816,-1.115 -0.192,-0.485 -0.289,-1.055 -0.289,-1.71 0,-0.649 0.097,-1.213 0.285,-1.696 0.187,-0.484 0.455,-0.855 0.807,-1.114 0.349,-0.255 0.761,-0.381 1.24,-0.381 0.72,0 1.289,0.28 1.719,0.846 0.423,0.563 0.638,1.348 0.638,2.345 m 2.383,0 c 0,-0.735 -0.109,-1.416 -0.332,-2.044 -0.219,-0.617 -0.539,-1.155 -0.955,-1.604 -0.418,-0.449 -0.918,-0.784 -1.496,-1.03 -0.58,-0.238 -1.229,-0.355 -1.957,-0.355 -0.723,0 -1.369,0.117 -1.942,0.363 -0.572,0.24 -1.072,0.587 -1.49,1.038 -0.42,0.452 -0.74,0.982 -0.955,1.595 -0.217,0.619 -0.324,1.294 -0.324,2.041 0,0.75 0.107,1.435 0.324,2.057 0.227,0.625 0.537,1.156 0.949,1.601 0.414,0.44 0.912,0.781 1.496,1.02 0.592,0.238 1.237,0.361 1.942,0.361 0.72,0 1.369,-0.123 1.957,-0.365 0.586,-0.242 1.086,-0.589 1.504,-1.037 0.414,-0.448 0.738,-0.982 0.953,-1.6 0.217,-0.615 0.326,-1.298 0.326,-2.041" /><path
           id="path124"
           style="fill:#ffffff;fill-opacity:1;fill-rule:nonzero;stroke:none"
           d="m 392.314,18.834 v -2.063 c 0,-0.503 -0.113,-0.882 -0.339,-1.135 -0.227,-0.247 -0.514,-0.374 -0.864,-0.374 -0.34,0 -0.623,0.13 -0.841,0.38 -0.221,0.254 -0.329,0.629 -0.329,1.129 v 6.896 c 0,1.115 0.383,1.671 1.155,1.671 0.39,0 0.677,-0.134 0.853,-0.392 0.172,-0.258 0.264,-0.645 0.287,-1.152 0.284,0.507 0.577,0.894 0.875,1.152 0.299,0.258 0.696,0.392 1.192,0.392 0.504,0 0.984,-0.134 1.457,-0.392 0.467,-0.258 0.705,-0.605 0.705,-1.034 0,-0.303 -0.104,-0.556 -0.303,-0.749 -0.197,-0.195 -0.414,-0.297 -0.648,-0.297 -0.086,0 -0.297,0.058 -0.631,0.171 -0.334,0.111 -0.629,0.169 -0.885,0.169 -0.346,0 -0.629,-0.094 -0.848,-0.289 -0.22,-0.192 -0.392,-0.472 -0.515,-0.847 -0.121,-0.378 -0.209,-0.822 -0.252,-1.342 -0.045,-0.514 -0.069,-1.144 -0.069,-1.894" /><path
           id="path126"
           style="fill:#ffffff;fill-opacity:1;fill-rule:nonzero;stroke:none"
           d="m 404.963,18.499 c 0,-0.685 -0.16,-1.269 -0.483,-1.757 -0.32,-0.488 -0.791,-0.853 -1.414,-1.108 -0.625,-0.245 -1.38,-0.372 -2.279,-0.372 -0.846,0 -1.58,0.136 -2.191,0.409 -0.608,0.272 -1.059,0.611 -1.346,1.018 -0.293,0.407 -0.441,0.817 -0.441,1.227 0,0.272 0.095,0.507 0.285,0.699 0.183,0.197 0.42,0.291 0.701,0.291 0.25,0 0.443,-0.064 0.576,-0.189 0.135,-0.133 0.258,-0.309 0.383,-0.537 0.244,-0.445 0.533,-0.774 0.877,-0.992 0.334,-0.221 0.799,-0.328 1.389,-0.328 0.472,0 0.863,0.112 1.168,0.333 0.302,0.22 0.46,0.473 0.46,0.757 0,0.438 -0.162,0.757 -0.474,0.953 -0.32,0.205 -0.838,0.395 -1.565,0.575 -0.816,0.213 -1.482,0.435 -1.996,0.667 -0.513,0.233 -0.929,0.543 -1.234,0.923 -0.307,0.377 -0.463,0.85 -0.463,1.407 0,0.498 0.143,0.967 0.428,1.405 0.283,0.444 0.707,0.796 1.26,1.06 0.552,0.264 1.22,0.398 2.005,0.398 0.614,0 1.166,-0.069 1.659,-0.201 0.488,-0.132 0.902,-0.313 1.224,-0.535 0.328,-0.225 0.58,-0.472 0.75,-0.743 0.174,-0.276 0.258,-0.542 0.258,-0.8 0,-0.286 -0.09,-0.514 -0.275,-0.703 -0.184,-0.174 -0.446,-0.267 -0.778,-0.267 -0.246,0 -0.451,0.071 -0.625,0.22 -0.168,0.143 -0.367,0.36 -0.586,0.647 -0.179,0.243 -0.39,0.439 -0.636,0.583 -0.245,0.144 -0.575,0.218 -0.991,0.218 -0.429,0 -0.789,-0.095 -1.068,-0.287 -0.285,-0.19 -0.43,-0.428 -0.43,-0.713 0,-0.261 0.106,-0.474 0.313,-0.641 0.211,-0.166 0.49,-0.303 0.846,-0.414 0.355,-0.109 0.841,-0.245 1.462,-0.4 0.737,-0.186 1.338,-0.41 1.805,-0.672 0.467,-0.258 0.82,-0.565 1.061,-0.92 0.244,-0.357 0.365,-0.76 0.365,-1.211" /><path
           id="path128"
           style="fill:#ffffff;fill-opacity:1;fill-rule:nonzero;stroke:none"
           d="m 407.658,15.262 c -0.359,0 -0.67,0.117 -0.928,0.363 -0.265,0.24 -0.394,0.581 -0.394,1.014 0,0.367 0.123,0.686 0.369,0.953 0.25,0.265 0.561,0.395 0.926,0.395 0.363,0 0.676,-0.13 0.928,-0.393 0.261,-0.259 0.392,-0.583 0.392,-0.955 0,-0.429 -0.131,-0.767 -0.392,-1.01 -0.252,-0.245 -0.553,-0.367 -0.901,-0.367" /><path
           id="path130"
           style="fill:#ffffff;fill-opacity:1;fill-rule:nonzero;stroke:none"
           d="m 418.158,20.295 c 0,1.007 -0.215,1.796 -0.64,2.358 -0.426,0.56 -0.997,0.845 -1.715,0.845 -0.465,0 -0.869,-0.128 -1.225,-0.378 -0.355,-0.254 -0.627,-0.624 -0.816,-1.115 -0.19,-0.485 -0.287,-1.055 -0.287,-1.71 0,-0.649 0.091,-1.213 0.279,-1.696 0.193,-0.484 0.461,-0.855 0.812,-1.114 0.35,-0.255 0.762,-0.381 1.237,-0.381 0.718,0 1.289,0.28 1.715,0.846 0.425,0.563 0.64,1.348 0.64,2.345 m 2.387,0 c 0,-0.735 -0.109,-1.416 -0.334,-2.044 -0.221,-0.617 -0.537,-1.155 -0.955,-1.604 -0.42,-0.449 -0.912,-0.784 -1.496,-1.03 -0.578,-0.238 -1.231,-0.355 -1.957,-0.355 -0.719,0 -1.365,0.117 -1.94,0.363 -0.574,0.24 -1.068,0.587 -1.488,1.038 -0.426,0.452 -0.742,0.982 -0.963,1.595 -0.213,0.619 -0.322,1.294 -0.322,2.041 0,0.75 0.109,1.435 0.33,2.057 0.225,0.625 0.535,1.156 0.945,1.601 0.412,0.44 0.912,0.781 1.498,1.02 0.586,0.238 1.229,0.361 1.94,0.361 0.718,0 1.371,-0.123 1.957,-0.365 0.588,-0.242 1.088,-0.589 1.506,-1.037 0.416,-0.448 0.732,-0.982 0.953,-1.6 0.217,-0.615 0.326,-1.298 0.326,-2.041" /><path
           id="path132"
           style="fill:#ffffff;fill-opacity:1;fill-rule:nonzero;stroke:none"
           d="m 424.773,18.834 v -2.063 c 0,-0.503 -0.113,-0.882 -0.337,-1.135 -0.225,-0.247 -0.514,-0.374 -0.86,-0.374 -0.347,0 -0.625,0.13 -0.847,0.38 -0.221,0.254 -0.331,0.629 -0.331,1.129 v 6.896 c 0,1.115 0.391,1.671 1.159,1.671 0.394,0 0.675,-0.134 0.849,-0.392 0.172,-0.258 0.274,-0.645 0.293,-1.152 0.28,0.507 0.571,0.894 0.869,1.152 0.299,0.258 0.7,0.392 1.194,0.392 0.506,0 0.99,-0.134 1.455,-0.392 0.471,-0.258 0.707,-0.605 0.707,-1.034 0,-0.303 -0.102,-0.556 -0.299,-0.749 -0.203,-0.195 -0.416,-0.297 -0.652,-0.297 -0.084,0 -0.293,0.058 -0.627,0.171 -0.334,0.111 -0.629,0.169 -0.887,0.169 -0.346,0 -0.627,-0.094 -0.854,-0.289 -0.216,-0.192 -0.388,-0.472 -0.511,-0.847 -0.119,-0.378 -0.205,-0.822 -0.25,-1.342 -0.045,-0.514 -0.071,-1.144 -0.071,-1.894" /><path
           id="path134"
           style="fill:#ffffff;fill-opacity:1;fill-rule:nonzero;stroke:none"
           d="m 431.629,20.38 c 0,-1.002 0.211,-1.763 0.633,-2.279 0.418,-0.512 0.965,-0.773 1.627,-0.773 0.392,0 0.769,0.115 1.119,0.336 0.351,0.222 0.637,0.553 0.859,0.997 0.221,0.447 0.328,0.985 0.328,1.619 0,1.01 -0.215,1.796 -0.64,2.359 -0.424,0.567 -0.987,0.849 -1.68,0.849 -0.676,0 -1.223,-0.275 -1.629,-0.809 -0.412,-0.542 -0.617,-1.305 -0.617,-2.299 m 6.883,3.143 v -7.202 c 0,-0.824 -0.09,-1.532 -0.254,-2.122 -0.168,-0.596 -0.44,-1.086 -0.809,-1.472 -0.371,-0.388 -0.859,-0.673 -1.455,-0.863 -0.601,-0.182 -1.349,-0.278 -2.24,-0.278 -0.82,0 -1.553,0.115 -2.193,0.354 -0.645,0.246 -1.141,0.549 -1.489,0.93 -0.347,0.375 -0.523,0.765 -0.523,1.167 0,0.303 0.097,0.549 0.299,0.738 0.195,0.195 0.433,0.289 0.711,0.289 0.349,0 0.65,-0.162 0.916,-0.481 0.127,-0.168 0.261,-0.331 0.394,-0.495 0.135,-0.169 0.285,-0.313 0.451,-0.428 0.166,-0.121 0.368,-0.208 0.6,-0.266 0.226,-0.058 0.496,-0.086 0.799,-0.086 0.611,0 1.094,0.09 1.429,0.268 0.34,0.177 0.579,0.427 0.717,0.747 0.131,0.321 0.217,0.662 0.231,1.031 0.029,0.371 0.045,0.956 0.06,1.768 -0.365,-0.53 -0.793,-0.937 -1.267,-1.215 -0.477,-0.278 -1.049,-0.414 -1.705,-0.414 -0.801,0 -1.496,0.207 -2.086,0.634 -0.598,0.424 -1.055,1.014 -1.373,1.78 -0.315,0.759 -0.479,1.64 -0.479,2.64 0,0.748 0.096,1.421 0.295,2.02 0.189,0.596 0.465,1.102 0.83,1.514 0.356,0.412 0.774,0.723 1.242,0.933 0.473,0.206 0.983,0.312 1.549,0.312 0.67,0 1.254,-0.137 1.746,-0.407 0.498,-0.266 0.951,-0.692 1.375,-1.266 v 0.333 c 0,0.433 0.106,0.762 0.305,1.005 0.203,0.234 0.465,0.354 0.781,0.354 0.461,0 0.766,-0.156 0.918,-0.468 0.149,-0.313 0.225,-0.766 0.225,-1.354" /><path
           id="path136"
           style="fill:#ffffff;fill-opacity:1;fill-rule:nonzero;stroke:none"
           d="m 335.594,47.654 h 3.523 c -0.25,-1.899 -1.027,-3.382 -2.322,-4.448 -1.197,-1.044 -2.647,-1.56 -4.342,-1.56 -2.299,0 -4.135,0.808 -5.506,2.421 C 325.648,45.601 325,47.581 325,50 c 0,2.479 0.645,4.462 1.93,5.962 1.283,1.494 3.099,2.246 5.445,2.246 1.746,0 3.223,-0.473 4.42,-1.41 1.271,-1.012 2.047,-2.435 2.322,-4.258 h -3.523 c -0.303,1.59 -1.274,2.382 -2.926,2.382 -2.721,0 -4.086,-1.613 -4.086,-4.84 0,-1.512 0.352,-2.746 1.051,-3.709 0.701,-0.964 1.687,-1.446 2.961,-1.446 1.898,0 2.898,0.91 3,2.727 m -13.864,2.222 c 0,-3.152 1,-5.821 2.997,-7.993 1.998,-2.176 4.443,-3.264 7.345,-3.264 2.891,0 5.338,1.088 7.334,3.264 2,2.172 2.994,4.841 2.994,7.993 0,3.15 -0.994,5.816 -2.994,7.991 -1.996,2.177 -4.443,3.264 -7.334,3.264 -2.902,0 -5.347,-1.087 -7.345,-3.264 -1.997,-2.175 -2.997,-4.841 -2.997,-7.991 m -3.578,0 c 0,4.011 1.358,7.434 4.075,10.278 2.72,2.839 6.002,4.259 9.845,4.259 3.836,0 7.114,-1.42 9.836,-4.259 2.719,-2.844 4.08,-6.267 4.08,-10.278 0,-4.014 -1.361,-7.442 -4.08,-10.28 -2.722,-2.842 -6,-4.263 -9.836,-4.263 -3.843,0 -7.125,1.421 -9.845,4.263 -2.717,2.838 -4.075,6.266 -4.075,10.28" /><path
           id="path138"
           style="fill:#ffffff;fill-opacity:1;fill-rule:nonzero;stroke:none"
           d="m 323.785,40.758 2.029,-1.722 14.928,19.169 -2.029,1.72 z" /></g></g></g><g
     inkscape:groupmode="layer"
     id="layer1"
     inkscape:label="Text"
     style="display:inline" /></svg>
